<svg xmlns="http://www.w3.org/2000/svg" viewBox="0 0 1200 820" role="img" aria-labelledby="t d">
<title id="t">Dashboard JobPass</title><desc id="d">Mockup do painel JobPass com currículo, mensagens, entrevista e candidaturas.</desc>
<defs><linearGradient id="g" x1="0" x2="1"><stop stop-color="#153f35"/><stop offset="1" stop-color="#2b6a59"/></linearGradient><filter id="s"><feDropShadow dx="0" dy="22" stdDeviation="26" flood-opacity=".18"/></filter></defs>
<rect width="1200" height="820" rx="46" fill="#efe9dc"/>
<rect x="55" y="52" width="1090" height="716" rx="34" fill="#fffdf8" filter="url(#s)"/>
<rect x="55" y="52" width="1090" height="92" rx="34" fill="#f8f4eb"/><rect x="55" y="110" width="1090" height="34" fill="#f8f4eb"/>
<rect x="90" y="79" width="42" height="42" rx="12" fill="#153f35"/><text x="111" y="107" text-anchor="middle" font-family="Arial" font-size="22" font-weight="700" fill="#fff">J</text>
<text x="151" y="98" font-family="Arial" font-size="23" font-weight="700" fill="#17211d">JobPass</text><text x="151" y="119" font-family="Arial" font-size="11" letter-spacing="2" fill="#7d817e">PAINEL PROFISSIONAL</text>
<rect x="893" y="79" width="218" height="39" rx="20" fill="#e6f0eb"/><text x="1002" y="104" text-anchor="middle" font-family="Arial" font-size="14" font-weight="700" fill="#245746">ESPANHA · HOTELARIA</text>
<rect x="89" y="180" width="259" height="548" rx="24" fill="url(#g)"/>
<text x="119" y="225" font-family="Arial" font-size="13" fill="#c9d9d3">OLÁ, CARLOS</text><text x="119" y="260" font-family="Arial" font-size="28" font-weight="700" fill="#fff">Seu plano está</text><text x="119" y="292" font-family="Arial" font-size="28" font-weight="700" fill="#fff">pronto.</text>
<rect x="118" y="335" width="200" height="64" rx="15" fill="#ffffff18"/><text x="139" y="362" font-family="Arial" font-size="12" fill="#c9d9d3">PERFIL</text><text x="139" y="384" font-family="Arial" font-size="17" font-weight="700" fill="#fff">92% completo</text>
<g font-family="Arial" font-size="15" fill="#e7efeb"><text x="122" y="458">Currículo</text><text x="122" y="505">Adaptar vaga</text><text x="122" y="552">Mensagens</text><text x="122" y="599">Entrevista</text><text x="122" y="646">Candidaturas</text></g>
<circle cx="298" cy="453" r="5" fill="#e9c99f"/><circle cx="298" cy="500" r="5" fill="#e9c99f"/><circle cx="298" cy="547" r="5" fill="#e9c99f"/><circle cx="298" cy="594" r="5" fill="#e9c99f"/><circle cx="298" cy="641" r="5" fill="#e9c99f"/>
<text x="392" y="214" font-family="Arial" font-size="13" font-weight="700" letter-spacing="1.5" fill="#a06e55">SEU JOBPASS</text><text x="392" y="252" font-family="Arial" font-size="34" font-weight="700" fill="#17211d">Tudo para começar a aplicar.</text>
<rect x="392" y="291" width="337" height="186" rx="22" fill="#f2eee5"/><text x="420" y="326" font-family="Arial" font-size="13" font-weight="700" fill="#245746">CURRÍCULO ADAPTADO</text><text x="420" y="365" font-family="Arial" font-size="25" font-weight="700" fill="#17211d">Carlos Mendes</text><text x="420" y="391" font-family="Arial" font-size="14" fill="#707672">Camarero · Madrid</text><rect x="420" y="420" width="253" height="8" rx="4" fill="#d5d3cd"/><rect x="420" y="440" width="198" height="8" rx="4" fill="#dedbd4"/>
<rect x="755" y="291" width="326" height="186" rx="22" fill="#173f35"/><text x="784" y="326" font-family="Arial" font-size="13" font-weight="700" fill="#d4e2dc">PRÓXIMA AÇÃO</text><text x="784" y="365" font-family="Arial" font-size="23" font-weight="700" fill="#fff">Adaptar para vaga</text><text x="784" y="395" font-family="Arial" font-size="14" fill="#c7d8d1">Cole a descrição e ajuste</text><text x="784" y="417" font-family="Arial" font-size="14" fill="#c7d8d1">seu material sem inventar.</text><rect x="784" y="438" width="131" height="25" rx="13" fill="#e9c99f"/><text x="850" y="455" text-anchor="middle" font-family="Arial" font-size="11" font-weight="700" fill="#173f35">COMEÇAR</text>
<text x="392" y="523" font-family="Arial" font-size="18" font-weight="700" fill="#17211d">Minhas candidaturas</text>
<rect x="392" y="549" width="689" height="58" rx="15" fill="#faf8f2" stroke="#e5e1d8"/><text x="417" y="584" font-family="Arial" font-size="15" font-weight="700" fill="#17211d">Hotel Centro Madrid</text><text x="735" y="584" font-family="Arial" font-size="14" fill="#707672">Camarero</text><rect x="946" y="565" width="106" height="27" rx="14" fill="#e8f2ed"/><text x="999" y="583" text-anchor="middle" font-family="Arial" font-size="11" font-weight="700" fill="#245746">ENVIADO</text>
<rect x="392" y="621" width="689" height="58" rx="15" fill="#faf8f2" stroke="#e5e1d8"/><text x="417" y="656" font-family="Arial" font-size="15" font-weight="700" fill="#17211d">Restaurante Sol</text><text x="735" y="656" font-family="Arial" font-size="14" fill="#707672">Atendimento</text><rect x="930" y="637" width="122" height="27" rx="14" fill="#f4e8dd"/><text x="991" y="655" text-anchor="middle" font-family="Arial" font-size="11" font-weight="700" fill="#9a6043">ENTREVISTA</text>
</svg>