<svg xmlns="http://www.w3.org/2000/svg" viewBox="0 0 980 760" role="img" aria-labelledby="t d">
<title id="t">Preview bloqueado do JobPass</title><desc id="d">Lista visual dos materiais gerados e bloqueados antes do pagamento.</desc>
<defs><filter id="blur"><feGaussianBlur stdDeviation="6"/></filter><filter id="shadow"><feDropShadow dx="0" dy="18" stdDeviation="24" flood-opacity=".16"/></filter></defs>
<rect width="980" height="760" rx="42" fill="#143a31"/>
<circle cx="830" cy="85" r="170" fill="#ffffff0a"/><circle cx="70" cy="700" r="190" fill="#c9907220"/>
<rect x="96" y="74" width="788" height="610" rx="32" fill="#fffdf8" filter="url(#shadow)"/>
<text x="142" y="130" font-family="Arial" font-size="13" letter-spacing="2" font-weight="700" fill="#a06e55">RESULTADO</text><text x="142" y="177" font-family="Arial" font-size="36" font-weight="700" fill="#17211d">Seu JobPass está pronto.</text><text x="142" y="209" font-family="Arial" font-size="15" fill="#747a76">Preparamos seu pacote para Espanha · Restaurante</text>
<g font-family="Arial">
<rect x="142" y="252" width="696" height="62" rx="15" fill="#f5f2eb"/><circle cx="174" cy="283" r="13" fill="#dcebe4"/><path d="M168 283l4 4 8-9" fill="none" stroke="#245746" stroke-width="3"/><text x="203" y="289" font-size="16" font-weight="700" fill="#17211d">Currículo espanhol</text><text x="785" y="289" font-size="13" font-weight="700" fill="#245746">PRONTO</text>
<rect x="142" y="328" width="696" height="62" rx="15" fill="#f5f2eb"/><circle cx="174" cy="359" r="13" fill="#dcebe4"/><path d="M168 359l4 4 8-9" fill="none" stroke="#245746" stroke-width="3"/><text x="203" y="365" font-size="16" font-weight="700" fill="#17211d">Carta de apresentação</text><text x="785" y="365" font-size="13" font-weight="700" fill="#245746">PRONTO</text>
<rect x="142" y="404" width="696" height="62" rx="15" fill="#f5f2eb"/><circle cx="174" cy="435" r="13" fill="#dcebe4"/><path d="M168 435l4 4 8-9" fill="none" stroke="#245746" stroke-width="3"/><text x="203" y="441" font-size="16" font-weight="700" fill="#17211d">Mensagem WhatsApp</text><text x="785" y="441" font-size="13" font-weight="700" fill="#245746">PRONTO</text>
<g filter="url(#blur)" opacity=".75"><rect x="142" y="480" width="696" height="62" rx="15" fill="#e8e4dc"/><text x="203" y="517" font-size="16" font-weight="700" fill="#17211d">Guia de entrevista no idioma local</text><rect x="142" y="556" width="696" height="62" rx="15" fill="#e8e4dc"/><text x="203" y="593" font-size="16" font-weight="700" fill="#17211d">Sites + termos + plano de 7 dias</text></g>
<rect x="261" y="542" width="458" height="92" rx="21" fill="#173f35"/><text x="490" y="576" text-anchor="middle" font-size="14" font-weight="700" fill="#d8e5df">DESBLOQUEIE O PACOTE COMPLETO</text><text x="490" y="608" text-anchor="middle" font-size="25" font-weight="700" fill="#fff">Liberar meu JobPass · €12,90</text>
</g></svg>